<?xml version="1.0" encoding="UTF-8" standalone="no"?>
<svg
   xmlns:dc="http://purl.org/dc/elements/1.1/"
   xmlns:cc="http://creativecommons.org/ns#"
   xmlns:rdf="http://www.w3.org/1999/02/22-rdf-syntax-ns#"
   xmlns:svg="http://www.w3.org/2000/svg"
   xmlns="http://www.w3.org/2000/svg"
   xmlns:sodipodi="http://sodipodi.sourceforge.net/DTD/sodipodi-0.dtd"
   xmlns:inkscape="http://www.inkscape.org/namespaces/inkscape"
   version="1.1"
   x="0px"
   y="0px"
   viewBox="0 0 412 369.05"
   enable-background="new 0 0 90 90"
   xml:space="preserve"
   id="svg2"
   inkscape:version="0.48.4 r9939"
   width="100%"
   height="100%"
   sodipodi:docname="speed_icon.svg"><metadata
     id="metadata32"><rdf:RDF><cc:Work
         rdf:about=""><dc:format>image/svg+xml</dc:format><dc:type
           rdf:resource="http://purl.org/dc/dcmitype/StillImage" /></cc:Work></rdf:RDF></metadata><defs
     id="defs30" /><sodipodi:namedview
     pagecolor="#ffffff"
     bordercolor="#666666"
     borderopacity="1"
     objecttolerance="10"
     gridtolerance="10"
     guidetolerance="10"
     inkscape:pageopacity="0"
     inkscape:pageshadow="2"
     inkscape:window-width="1855"
     inkscape:window-height="1056"
     id="namedview28"
     showgrid="false"
     inkscape:zoom="1.4833529"
     inkscape:cx="234.85051"
     inkscape:cy="117.04461"
     inkscape:window-x="1345"
     inkscape:window-y="24"
     inkscape:window-maximized="1"
     inkscape:current-layer="g4" /><g
     id="g4"
     transform="matrix(1.3495461,0,0,1.3495461,-15.897453,271.86173)"><g
       id="g3801"
       transform="matrix(4.1078629,0,0,4.1078629,-20.8405,-227.74246)"><path
         style="fill:#919191;fill-opacity:1"
         inkscape:connector-curvature="0"
         id="path6"
         d="m 46.943,44.038 c -0.209,-0.26 -0.463,-0.491 -0.769,-0.667 -1.323,-0.764 -3.015,-0.311 -3.779,1.013 -0.764,1.323 -0.311,3.015 1.013,3.779 1.323,0.764 3.015,0.311 3.779,-1.013 0.177,-0.306 0.282,-0.633 0.332,-0.962 l 16.056,-5.454 -16.632,3.304 z" /><path
         style="fill:#919191;fill-opacity:1"
         inkscape:connector-curvature="0"
         id="path8"
         d="M 69.897,41.33 C 69.793,40.5 69.688,39.671 69.688,39.671 69.605,39.02 69.02,38.545 68.361,38.606 c -0.673,0.063 -1.167,0.659 -1.104,1.331 l 0.009,0.095 c 0,0 0.065,0.696 0.13,1.391 0.015,0.767 0.03,1.535 0.03,1.535 0,0.013 0.001,0.032 0.002,0.045 0.039,0.705 0.642,1.246 1.347,1.207 0.705,-0.039 1.246,-0.642 1.207,-1.347 -0.001,0 -0.043,-0.766 -0.085,-1.533 z" /><path
         style="fill:#919191;fill-opacity:1"
         inkscape:connector-curvature="0"
         id="path10"
         d="m 67.737,33.598 c 0,0 -0.177,-0.332 -0.443,-0.83 -0.066,-0.125 -0.138,-0.259 -0.215,-0.402 -0.071,-0.141 -0.183,-0.302 -0.278,-0.462 -0.201,-0.321 -0.416,-0.664 -0.63,-1.007 -0.232,-0.319 -0.463,-0.638 -0.681,-0.938 -0.111,-0.147 -0.208,-0.298 -0.319,-0.426 -0.108,-0.13 -0.211,-0.253 -0.305,-0.366 -0.379,-0.453 -0.631,-0.754 -0.631,-0.754 -0.347,-0.414 -0.964,-0.484 -1.395,-0.15 -0.441,0.342 -0.521,0.977 -0.179,1.418 l 0.043,0.055 c 0,0 0.22,0.284 0.551,0.71 0.083,0.106 0.172,0.221 0.267,0.343 0.098,0.119 0.18,0.261 0.277,0.398 0.188,0.279 0.388,0.576 0.588,0.873 0.174,0.301 0.349,0.603 0.512,0.886 0.081,0.146 0.164,0.266 0.234,0.416 0.071,0.145 0.138,0.283 0.2,0.409 0.248,0.507 0.414,0.845 0.414,0.845 0.005,0.01 0.013,0.025 0.018,0.035 0.291,0.545 0.969,0.751 1.513,0.46 0.544,-0.291 0.75,-0.968 0.459,-1.513 z" /><path
         style="fill:#919191;fill-opacity:1"
         inkscape:connector-curvature="0"
         id="path12"
         d="m 53.325,23.055 0.046,0.02 c 0,0 0.335,0.143 0.837,0.357 0.126,0.053 0.261,0.111 0.405,0.173 0.146,0.057 0.289,0.14 0.443,0.214 0.305,0.153 0.63,0.315 0.955,0.478 0.308,0.179 0.617,0.357 0.906,0.525 0.145,0.087 0.283,0.156 0.418,0.248 0.135,0.09 0.262,0.174 0.379,0.252 0.47,0.313 0.783,0.521 0.783,0.521 0.008,0.005 0.019,0.012 0.027,0.017 0.426,0.262 0.984,0.129 1.246,-0.297 0.262,-0.426 0.129,-0.984 -0.297,-1.246 0,0 -0.321,-0.197 -0.801,-0.493 -0.12,-0.074 -0.25,-0.154 -0.388,-0.239 -0.136,-0.085 -0.305,-0.167 -0.465,-0.256 -0.328,-0.175 -0.677,-0.361 -1.027,-0.548 -0.354,-0.162 -0.708,-0.324 -1.04,-0.476 -0.167,-0.073 -0.323,-0.156 -0.481,-0.211 -0.156,-0.06 -0.303,-0.117 -0.439,-0.169 -0.544,-0.209 -0.906,-0.349 -0.906,-0.349 -0.399,-0.153 -0.852,0.036 -1.021,0.432 -0.174,0.405 0.014,0.874 0.42,1.047 z" /><path
         style="fill:#919191;fill-opacity:1"
         inkscape:connector-curvature="0"
         id="path14"
         d="m 43.712,21.407 c 0.347,-0.004 0.717,-0.008 1.087,-0.011 0.362,0.017 0.724,0.034 1.063,0.05 0.171,0.011 0.33,0.009 0.492,0.029 0.161,0.017 0.313,0.033 0.453,0.048 0.562,0.059 0.936,0.098 0.936,0.098 0.007,0.001 0.017,0.002 0.024,0.002 0.382,0.026 0.713,-0.261 0.739,-0.643 0.026,-0.382 -0.261,-0.713 -0.643,-0.739 0,0 -0.375,-0.026 -0.939,-0.065 -0.141,-0.01 -0.293,-0.02 -0.455,-0.032 -0.16,-0.014 -0.343,-0.008 -0.524,-0.013 -0.366,-0.004 -0.756,-0.009 -1.147,-0.014 -0.382,0.017 -0.765,0.035 -1.123,0.051 -0.348,0.009 -0.689,0.046 -0.981,0.077 -0.581,0.06 -0.968,0.101 -0.968,0.101 -0.312,0.033 -0.545,0.307 -0.524,0.622 0.022,0.323 0.301,0.567 0.624,0.545 l 0.034,-0.002 c 0,0 0.363,-0.025 0.906,-0.062 0.274,-0.02 0.588,-0.045 0.946,-0.042 z" /><path
         style="fill:#919191;fill-opacity:1"
         inkscape:connector-curvature="0"
         id="path16"
         d="m 35.771,21.874 c 0,0 -0.346,0.147 -0.866,0.368 -0.13,0.055 -0.271,0.115 -0.42,0.178 -0.149,0.058 -0.306,0.147 -0.469,0.224 -0.324,0.162 -0.67,0.334 -1.016,0.507 -0.332,0.191 -0.664,0.383 -0.975,0.562 -0.315,0.173 -0.592,0.36 -0.831,0.52 -0.478,0.317 -0.796,0.529 -0.796,0.529 -0.166,0.111 -0.217,0.334 -0.112,0.506 0.108,0.176 0.338,0.231 0.513,0.123 l 0.02,-0.012 c 0,0 0.316,-0.194 0.79,-0.485 0.236,-0.147 0.51,-0.319 0.821,-0.475 0.306,-0.163 0.633,-0.336 0.96,-0.509 0.333,-0.152 0.667,-0.304 0.98,-0.446 0.159,-0.069 0.301,-0.146 0.456,-0.2 0.151,-0.058 0.294,-0.113 0.426,-0.163 0.527,-0.202 0.879,-0.337 0.879,-0.337 0.005,-0.002 0.011,-0.004 0.016,-0.006 0.244,-0.104 0.358,-0.385 0.254,-0.629 -0.104,-0.245 -0.386,-0.358 -0.63,-0.255 z" /><path
         style="fill:#919191;fill-opacity:1"
         inkscape:connector-curvature="0"
         id="path18"
         d="m 25.916,28.896 c 0,0 -0.231,0.297 -0.578,0.742 -0.087,0.111 -0.181,0.232 -0.28,0.359 -0.102,0.124 -0.192,0.276 -0.295,0.422 -0.201,0.297 -0.415,0.613 -0.629,0.93 -0.191,0.329 -0.382,0.657 -0.561,0.965 -0.086,0.156 -0.182,0.299 -0.251,0.447 -0.072,0.146 -0.14,0.285 -0.202,0.413 -0.25,0.511 -0.417,0.851 -0.417,0.851 -0.038,0.077 -0.008,0.171 0.068,0.212 0.078,0.042 0.175,0.012 0.217,-0.066 l 0.005,-0.01 c 0,0 0.176,-0.329 0.441,-0.823 0.066,-0.123 0.137,-0.257 0.213,-0.398 0.072,-0.143 0.172,-0.281 0.262,-0.431 0.186,-0.296 0.385,-0.611 0.583,-0.927 0.218,-0.299 0.437,-0.599 0.641,-0.88 0.105,-0.139 0.194,-0.279 0.301,-0.401 0.104,-0.124 0.202,-0.241 0.293,-0.349 0.363,-0.433 0.604,-0.721 0.604,-0.721 0.002,-0.002 0.004,-0.005 0.006,-0.007 0.091,-0.116 0.07,-0.284 -0.047,-0.375 -0.116,-0.09 -0.284,-0.069 -0.374,0.047 z" /><path
         style="fill:#919191;fill-opacity:1"
         inkscape:connector-curvature="0"
         id="path20"
         d="m 21.051,39.846 c 0,0 -0.071,0.764 -0.142,1.528 -0.015,0.768 -0.03,1.537 -0.03,1.537 0,0 0.042,-0.765 0.084,-1.531 0.098,-0.761 0.196,-1.522 0.196,-1.522 0,-10e-4 0,-0.002 0,-0.002 0.003,-0.03 -0.019,-0.056 -0.049,-0.059 -0.03,-0.003 -0.056,0.019 -0.059,0.049 z" /><path
         style="fill:#919191;fill-opacity:1"
         inkscape:connector-curvature="0"
         id="path22"
         d="m 45.121,14.424 c -17.283,0 -31.343,14.061 -31.343,31.343 0,6.021 1.71,11.648 4.665,16.428 0.449,0.726 0.927,1.433 1.432,2.118 0.706,-0.478 1.426,-0.935 2.159,-1.374 6.758,-4.044 14.656,-6.372 23.087,-6.372 8.432,0 16.329,2.328 23.087,6.372 0.733,0.439 1.454,0.896 2.159,1.374 0.505,-0.686 0.983,-1.392 1.432,-2.118 2.955,-4.78 4.665,-10.407 4.665,-16.428 0,-17.283 -14.061,-31.343 -31.343,-31.343 z M 69.645,60.819 C 62.476,56.499 54.084,54.01 45.121,54.01 c -8.963,0 -17.355,2.489 -24.524,6.809 -2.7,-4.383 -4.261,-9.538 -4.261,-15.052 0,-15.872 12.913,-28.785 28.785,-28.785 15.872,0 28.785,12.913 28.785,28.785 0,5.514 -1.561,10.669 -4.261,15.052 z" /></g></g></svg>